<svg width="200" height="60" viewBox="0 0 200 60" xmlns="http://www.w3.org/2000/svg" fill="none">
  <g>
    <path d="M20 15c0-2 2-3 4-2l10 5c2 1 2 3 0 4l-10 5c-2 1-4 0-4-2V15z" fill="#333"/>
    <path d="M20 15c0-2 2-3 4-2l10 5c2 1 2 3 0 4l-10 5c-2 1-4 0-4-2V15z" stroke="#fff" stroke-width="0.5"/>
    <path d="M18 15v10" stroke="#999" stroke-width="1"/>
    <path d="M18 25l12-6" stroke="#999" stroke-width="1"/>
  </g>
  <text x="50" y="37" font-family="Arial, sans-serif" font-size="20" fill="#333" font-weight="bold">
    BookNest
  </text>
</svg>
