<svg width="807" height="306" viewBox="0 0 807 306" fill="none" xmlns="http://www.w3.org/2000/svg">
<path d="M235.043 116.168C235.043 111.075 230.914 106.946 225.821 106.946H223.243V52.4446H225.821C230.914 52.4446 235.043 48.3153 235.043 43.2223C235.043 38.1288 230.914 34 225.821 34H66.8959C50.82 34 37.7426 47.0786 37.7426 63.1545V96.236C37.7426 100.017 38.4735 103.628 39.7891 106.946H16.2223C11.1293 106.946 7 111.075 7 116.168C7 121.262 11.1299 125.39 16.2223 125.39H18.8021V179.892H16.2223C11.1293 179.892 7 184.021 7 189.113C7 194.206 11.1299 198.335 16.2223 198.335H39.788C38.4723 201.653 37.7414 205.265 37.7414 209.044V242.125C37.7414 258.202 50.8194 271.28 66.8947 271.28H225.819C230.914 271.28 235.042 267.151 235.042 262.058C235.042 256.966 230.912 252.836 225.819 252.836H223.241V198.335H225.819C230.914 198.335 235.042 194.206 235.042 189.113C235.042 184.021 230.912 179.892 225.819 179.892H202.254C203.569 176.574 204.3 172.963 204.3 169.182V136.1C204.3 132.319 203.569 128.708 202.254 125.39H225.819C230.914 125.39 235.043 121.262 235.043 116.168ZM37.2473 179.892V161.863H96.7731C101.866 161.863 105.995 157.735 105.995 152.641C105.995 147.548 101.866 143.419 96.7731 143.419H37.2473V125.39H66.8953H175.149C181.053 125.39 185.857 130.195 185.857 136.1V169.182C185.857 175.088 181.052 179.892 175.149 179.892H37.2473ZM204.797 198.336V216.365H145.27C140.177 216.365 136.048 220.494 136.048 225.587C136.048 230.68 140.177 234.809 145.27 234.809H204.798V252.837H66.8959C60.9907 252.837 56.1866 248.032 56.1866 242.128V209.046C56.1866 203.141 60.9913 198.337 66.8959 198.337H204.797V198.336ZM204.797 70.4729H145.27C140.177 70.4729 136.048 74.6023 136.048 79.6952C136.048 84.7882 140.177 88.9175 145.27 88.9175H204.798V106.946H66.8959C60.9907 106.946 56.1866 102.141 56.1866 96.236V63.1545C56.1866 57.2493 60.9913 52.4446 66.8959 52.4446H204.797L204.797 70.4729Z" fill="black"/>
<path d="M287.107 33.2168H326.594C334.41 33.2168 340.228 33.5537 344.046 34.2275C347.909 34.8564 351.346 36.2041 354.355 38.2705C357.41 40.3369 359.948 43.0996 361.97 46.5586C363.991 49.9727 365.002 53.8135 365.002 58.0811C365.002 62.708 363.744 66.9531 361.229 70.8164C358.758 74.6797 355.389 77.5771 351.121 79.5088C357.141 81.2607 361.768 84.248 365.002 88.4707C368.236 92.6934 369.854 97.6572 369.854 103.362C369.854 107.854 368.798 112.234 366.687 116.502C364.62 120.725 361.768 124.116 358.129 126.677C354.535 129.192 350.088 130.742 344.787 131.326C341.463 131.686 333.444 131.91 320.731 132H287.107V33.2168ZM307.053 49.6582V72.501H320.125C327.896 72.501 332.726 72.3887 334.612 72.1641C338.026 71.7598 340.699 70.5918 342.631 68.6602C344.607 66.6836 345.596 64.1006 345.596 60.9111C345.596 57.8564 344.742 55.3857 343.035 53.499C341.373 51.5674 338.88 50.3994 335.556 49.9951C333.579 49.7705 327.896 49.6582 318.508 49.6582H307.053ZM307.053 88.9424V115.356H325.516C332.703 115.356 337.263 115.154 339.194 114.75C342.159 114.211 344.562 112.908 346.404 110.842C348.291 108.73 349.234 105.923 349.234 102.419C349.234 99.4541 348.516 96.9385 347.078 94.8721C345.641 92.8057 343.552 91.3008 340.812 90.3574C338.116 89.4141 332.231 88.9424 323.157 88.9424H307.053ZM382.252 95.209C382.252 88.9199 383.802 82.833 386.901 76.9482C390.001 71.0635 394.381 66.5713 400.041 63.4717C405.746 60.3721 412.103 58.8223 419.11 58.8223C429.937 58.8223 438.809 62.3486 445.727 69.4014C452.645 76.4092 456.104 85.2812 456.104 96.0176C456.104 106.844 452.6 115.828 445.592 122.971C438.629 130.068 429.847 133.617 419.245 133.617C412.687 133.617 406.42 132.135 400.445 129.17C394.516 126.205 390.001 121.87 386.901 116.165C383.802 110.415 382.252 103.43 382.252 95.209ZM401.658 96.2197C401.658 103.317 403.343 108.753 406.712 112.526C410.081 116.3 414.236 118.187 419.178 118.187C424.119 118.187 428.252 116.3 431.576 112.526C434.945 108.753 436.63 103.272 436.63 96.085C436.63 89.0771 434.945 83.6865 431.576 79.9131C428.252 76.1396 424.119 74.2529 419.178 74.2529C414.236 74.2529 410.081 76.1396 406.712 79.9131C403.343 83.6865 401.658 89.1221 401.658 96.2197ZM466.615 95.209C466.615 88.9199 468.165 82.833 471.265 76.9482C474.364 71.0635 478.744 66.5713 484.404 63.4717C490.109 60.3721 496.466 58.8223 503.474 58.8223C514.3 58.8223 523.172 62.3486 530.09 69.4014C537.008 76.4092 540.467 85.2812 540.467 96.0176C540.467 106.844 536.963 115.828 529.955 122.971C522.992 130.068 514.21 133.617 503.608 133.617C497.05 133.617 490.783 132.135 484.809 129.17C478.879 126.205 474.364 121.87 471.265 116.165C468.165 110.415 466.615 103.43 466.615 95.209ZM486.021 96.2197C486.021 103.317 487.706 108.753 491.075 112.526C494.444 116.3 498.6 118.187 503.541 118.187C508.482 118.187 512.615 116.3 515.939 112.526C519.309 108.753 520.993 103.272 520.993 96.085C520.993 89.0771 519.309 83.6865 515.939 79.9131C512.615 76.1396 508.482 74.2529 503.541 74.2529C498.6 74.2529 494.444 76.1396 491.075 79.9131C487.706 83.6865 486.021 89.1221 486.021 96.2197ZM554.685 132V33.2168H573.619V85.6406L595.788 60.4395H619.103L594.643 86.584L620.854 132H600.438L582.446 99.8584L573.619 109.09V132H554.685Z" fill="black"/>
<path d="M281.986 235.858L301.393 233.972C302.561 240.485 304.919 245.27 308.468 248.324C312.062 251.379 316.891 252.906 322.955 252.906C329.379 252.906 334.208 251.559 337.442 248.863C340.722 246.123 342.361 242.934 342.361 239.295C342.361 236.959 341.665 234.982 340.272 233.365C338.925 231.703 336.544 230.266 333.13 229.053C330.794 228.244 325.471 226.807 317.16 224.74C306.469 222.09 298.967 218.833 294.654 214.97C288.59 209.534 285.558 202.908 285.558 195.092C285.558 190.061 286.973 185.366 289.803 181.009C292.678 176.606 296.788 173.26 302.134 170.969C307.524 168.678 314.016 167.532 321.607 167.532C334.006 167.532 343.327 170.25 349.571 175.686C355.86 181.121 359.162 188.376 359.477 197.45L339.531 198.326C338.678 193.25 336.836 189.611 334.006 187.41C331.221 185.164 327.021 184.041 321.405 184.041C315.61 184.041 311.073 185.231 307.794 187.612C305.683 189.14 304.627 191.184 304.627 193.744C304.627 196.08 305.615 198.079 307.592 199.741C310.107 201.853 316.217 204.054 325.92 206.345C335.623 208.636 342.788 211.017 347.415 213.487C352.087 215.913 355.726 219.26 358.331 223.527C360.981 227.75 362.307 232.983 362.307 239.228C362.307 244.888 360.734 250.188 357.59 255.13C354.445 260.071 349.998 263.755 344.248 266.181C338.498 268.562 331.333 269.752 322.753 269.752C310.265 269.752 300.674 266.877 293.98 261.127C287.287 255.332 283.289 246.909 281.986 235.858ZM411.766 196.439V211.533H398.828V240.373C398.828 246.213 398.94 249.627 399.165 250.615C399.435 251.559 399.996 252.345 400.85 252.974C401.748 253.603 402.826 253.917 404.084 253.917C405.836 253.917 408.374 253.311 411.698 252.098L413.315 266.787C408.913 268.674 403.927 269.617 398.356 269.617C394.942 269.617 391.865 269.056 389.125 267.933C386.385 266.765 384.363 265.282 383.061 263.485C381.803 261.644 380.927 259.173 380.433 256.073C380.028 253.872 379.826 249.425 379.826 242.731V211.533H371.134V196.439H379.826V182.222L398.828 171.171V196.439H411.766ZM420.525 231.209C420.525 224.92 422.075 218.833 425.175 212.948C428.274 207.063 432.654 202.571 438.314 199.472C444.02 196.372 450.376 194.822 457.384 194.822C468.21 194.822 477.082 198.349 484 205.401C490.918 212.409 494.377 221.281 494.377 232.018C494.377 242.844 490.873 251.828 483.865 258.971C476.902 266.068 468.12 269.617 457.519 269.617C450.96 269.617 444.693 268.135 438.719 265.17C432.789 262.205 428.274 257.87 425.175 252.165C422.075 246.415 420.525 239.43 420.525 231.209ZM439.932 232.22C439.932 239.317 441.616 244.753 444.985 248.526C448.354 252.3 452.51 254.187 457.451 254.187C462.393 254.187 466.525 252.3 469.85 248.526C473.219 244.753 474.903 239.272 474.903 232.085C474.903 225.077 473.219 219.687 469.85 215.913C466.525 212.14 462.393 210.253 457.451 210.253C452.51 210.253 448.354 212.14 444.985 215.913C441.616 219.687 439.932 225.122 439.932 232.22ZM527.395 268H508.46V196.439H526.047V206.614C529.057 201.808 531.752 198.641 534.133 197.113C536.559 195.586 539.299 194.822 542.354 194.822C546.666 194.822 550.821 196.013 554.819 198.394L548.957 214.902C545.768 212.836 542.803 211.803 540.062 211.803C537.412 211.803 535.166 212.544 533.324 214.026C531.482 215.464 530.022 218.092 528.944 221.91C527.911 225.729 527.395 233.725 527.395 245.898V268ZM604.48 245.225L623.348 248.392C620.922 255.31 617.081 260.588 611.825 264.227C606.614 267.82 600.078 269.617 592.217 269.617C579.773 269.617 570.564 265.552 564.59 257.421C559.873 250.907 557.515 242.687 557.515 232.759C557.515 220.899 560.614 211.623 566.813 204.93C573.013 198.191 580.852 194.822 590.33 194.822C600.977 194.822 609.377 198.349 615.531 205.401C621.686 212.409 624.628 223.168 624.358 237.678H576.921C577.056 243.293 578.583 247.673 581.503 250.817C584.423 253.917 588.062 255.467 592.419 255.467C595.384 255.467 597.877 254.658 599.898 253.041C601.92 251.424 603.447 248.818 604.48 245.225ZM605.559 226.088C605.424 220.607 604.009 216.452 601.313 213.622C598.618 210.747 595.339 209.31 591.476 209.31C587.343 209.31 583.929 210.814 581.233 213.824C578.538 216.834 577.213 220.922 577.258 226.088H605.559Z" fill="black"/>
</svg>
